# xmcd
#
# Track frame offsets: 
#        150
#        12785
#        24672
#        40155
#        59865
#        73212
#        86442
#        98637
#        110982
#        123170
#        136022
#        150052
#        168285
#        188782
#        203987
#        224455
#        242475
#        257010
#        271037
#
# Disc length: 3883 seconds
#
# Revision: 4
# Processed by: cddbd v1.5.2PL0 Copyright (c) Steve Scherf et al.
# Submitted via: ExactAudioCopy v1.0b3
#
DISCID=010f2913
DTITLE=Jimmy Yancey - Complete Recorded Works 1939-1950 Volume 1 - Feb
DTITLE=ruary 1940 ~ December 1943
DYEAR=2011
DGENRE=Blues
TTITLE0=Bear Trap Blues
TTITLE1=Old Quaker Blues
TTITLE2=35th And Dearborn
TTITLE3=I Love To Hear My Baby Call My Name
TTITLE4=Cryin' In My Sleep
TTITLE5=Death Letter Blues
TTITLE6=Yancey's Bugle Call (Take 1)
TTITLE7=Yancey's Bugle Call (Take 2)
TTITLE8=35th And Dearborn (Take 1)
TTITLE9=35th And Dearborn (Take 2)
TTITLE10=Boodlin'
TTITLE11=Yancey's Mixture
TTITLE12=Death letter Blues
TTITLE13=Sweet Patootie
TTITLE14=How Long Blues
TTITLE15=How Long Blues (Alternate take)
TTITLE16=The Rocks
TTITLE17=Jimmy's Rocks
TTITLE18=How Long Blues (Mama Yancey, vcl)
EXTD=
EXTT0=
EXTT1=
EXTT2=
EXTT3=
EXTT4=
EXTT5=
EXTT6=
EXTT7=
EXTT8=
EXTT9=
EXTT10=
EXTT11=
EXTT12=
EXTT13=
EXTT14=
EXTT15=
EXTT16=
EXTT17=
EXTT18=
PLAYORDER=
